<?xml version="1.0" encoding="utf-8"?>
<!-- Generator: Adobe Illustrator 27.2.0, SVG Export Plug-In . SVG Version: 6.00 Build 0)  -->
<svg version="1.1" id="Layer_1" xmlns="http://www.w3.org/2000/svg" xmlns:xlink="http://www.w3.org/1999/xlink" x="0px" y="0px"
	 viewBox="0 0 190.4 41.6" style="enable-background:new 0 0 190.4 41.6;" xml:space="preserve">
<style type="text/css">
	.st0{fill:#FFFFFF;}
	.st1{fill:#034EA2;}
	.st2{fill:#FFF200;}
</style>
<g>
</g>
<g>
	<rect class="st0" width="61.2" height="41.6"/>
	<rect x="1.1" y="1.1" class="st1" width="59" height="39.3"/>
	<polygon class="st2" points="29.4,9.6 30.6,8.7 31.8,9.6 31.4,8.2 32.6,7.2 31.1,7.2 30.6,5.8 30.1,7.2 28.6,7.2 29.8,8.2 	"/>
	<polygon class="st2" points="22.9,11.4 24.2,10.4 25.4,11.4 24.9,9.9 26.2,9 24.6,9 24.2,7.5 23.7,9 22.1,9 23.4,9.9 	"/>
	<polygon class="st2" points="19.4,12.2 19,13.7 17.4,13.7 18.7,14.6 18.2,16.1 19.4,15.2 20.7,16.1 20.2,14.6 21.5,13.7 19.9,13.7 
			"/>
	<polygon class="st2" points="17.7,21.6 19,22.5 18.5,21 19.7,20.1 18.2,20.1 17.7,18.6 17.2,20.1 15.7,20.1 16.9,21 16.5,22.5 	"/>
	<polygon class="st2" points="19.9,26.6 19.4,25.1 19,26.6 17.4,26.6 18.7,27.5 18.2,29 19.4,28.1 20.7,29 20.2,27.5 21.5,26.6 	"/>
	<polygon class="st2" points="24.6,31.3 24.2,29.8 23.7,31.3 22.1,31.3 23.4,32.2 22.9,33.7 24.2,32.8 25.4,33.7 24.9,32.2 
		26.2,31.3 	"/>
	<polygon class="st2" points="31.1,33 30.6,31.5 30.1,33 28.6,33 29.8,33.9 29.4,35.4 30.6,34.5 31.8,35.4 31.4,33.9 32.6,33 	"/>
	<polygon class="st2" points="37.5,31.3 37,29.8 36.6,31.3 35,31.3 36.3,32.2 35.8,33.7 37,32.8 38.3,33.7 37.8,32.2 39.1,31.3 	"/>
	<polygon class="st2" points="42.2,26.6 41.8,25.1 41.3,26.6 39.7,26.6 41,27.5 40.5,29 41.8,28.1 43,29 42.5,27.5 43.8,26.6 	"/>
	<polygon class="st2" points="45.5,20.1 43.9,20.1 43.5,18.6 43,20.1 41.4,20.1 42.7,21 42.2,22.5 43.5,21.6 44.7,22.5 44.2,21 	"/>
	<polygon class="st2" points="40.5,16.1 41.8,15.1 43,16.1 42.5,14.6 43.8,13.7 42.2,13.7 41.8,12.2 41.3,13.7 39.7,13.7 41,14.6 	
		"/>
	<polygon class="st2" points="37.1,7.5 36.6,9 35,9 36.3,9.9 35.8,11.4 37.1,10.4 38.3,11.4 37.8,9.9 39.1,9 37.5,9 	"/>
	<g>
		<path class="st0" d="M68.7,17.8V8.5h6.4v1.6h-4.5v2.2h3.9v1.6h-3.9v4H68.7z"/>
		<path class="st0" d="M81.1,17.8v-1c-0.2,0.4-0.6,0.6-1,0.9c-0.4,0.2-0.8,0.3-1.3,0.3c-0.5,0-0.9-0.1-1.2-0.3
			c-0.4-0.2-0.6-0.5-0.8-0.8c-0.2-0.4-0.2-0.9-0.2-1.5V11h1.8v3.1c0,0.9,0,1.5,0.1,1.7c0.1,0.2,0.2,0.4,0.4,0.5s0.4,0.2,0.7,0.2
			c0.3,0,0.6-0.1,0.8-0.3c0.2-0.2,0.4-0.4,0.5-0.6c0.1-0.2,0.1-0.9,0.1-1.8V11h1.8v6.7H81.1z"/>
		<path class="st0" d="M90.7,17.8h-1.8v-3.4c0-0.7,0-1.2-0.1-1.4s-0.2-0.4-0.4-0.5c-0.2-0.1-0.4-0.2-0.6-0.2c-0.3,0-0.6,0.1-0.8,0.3
			c-0.2,0.2-0.4,0.4-0.5,0.7s-0.1,0.8-0.1,1.5v3.1h-1.8V11h1.7v1c0.6-0.8,1.3-1.1,2.2-1.1c0.4,0,0.8,0.1,1.1,0.2s0.6,0.3,0.7,0.5
			c0.2,0.2,0.3,0.5,0.3,0.8s0.1,0.7,0.1,1.2V17.8z"/>
		<path class="st0" d="M98.7,17.8h-1.7v-1c-0.3,0.4-0.6,0.7-1,0.9c-0.4,0.2-0.8,0.3-1.1,0.3c-0.8,0-1.4-0.3-2-0.9
			c-0.6-0.6-0.8-1.5-0.8-2.6c0-1.1,0.3-2,0.8-2.6c0.5-0.6,1.2-0.9,2-0.9c0.8,0,1.4,0.3,2,0.9V8.5h1.8V17.8z M94,14.3
			c0,0.7,0.1,1.2,0.3,1.6c0.3,0.5,0.7,0.7,1.2,0.7c0.4,0,0.8-0.2,1-0.5c0.3-0.3,0.4-0.9,0.4-1.6c0-0.8-0.1-1.3-0.4-1.7
			s-0.6-0.5-1.1-0.5c-0.4,0-0.8,0.2-1.1,0.5C94.1,13.1,94,13.6,94,14.3z"/>
		<path class="st0" d="M104.4,15.6l1.8,0.3c-0.2,0.7-0.6,1.1-1.1,1.5c-0.5,0.3-1.1,0.5-1.9,0.5c-1.2,0-2-0.4-2.6-1.1
			c-0.4-0.6-0.7-1.4-0.7-2.3c0-1.1,0.3-2,0.9-2.6s1.3-0.9,2.2-0.9c1,0,1.8,0.3,2.4,1s0.9,1.7,0.8,3h-4.5c0,0.5,0.2,0.9,0.4,1.2
			c0.3,0.3,0.6,0.4,1,0.4c0.3,0,0.5-0.1,0.7-0.2S104.3,16,104.4,15.6z M104.5,13.8c0-0.5-0.1-0.9-0.4-1.2s-0.6-0.4-0.9-0.4
			c-0.4,0-0.7,0.1-1,0.4s-0.4,0.7-0.4,1.2H104.5z"/>
		<path class="st0" d="M113.9,17.8h-1.7v-1c-0.3,0.4-0.6,0.7-1,0.9c-0.4,0.2-0.8,0.3-1.1,0.3c-0.8,0-1.4-0.3-2-0.9
			c-0.6-0.6-0.8-1.5-0.8-2.6c0-1.1,0.3-2,0.8-2.6c0.5-0.6,1.2-0.9,2-0.9c0.8,0,1.4,0.3,2,0.9V8.5h1.8V17.8z M109.1,14.3
			c0,0.7,0.1,1.2,0.3,1.6c0.3,0.5,0.7,0.7,1.2,0.7c0.4,0,0.8-0.2,1-0.5c0.3-0.3,0.4-0.9,0.4-1.6c0-0.8-0.1-1.3-0.4-1.7
			s-0.6-0.5-1.1-0.5c-0.4,0-0.8,0.2-1.1,0.5C109.3,13.1,109.1,13.6,109.1,14.3z"/>
		<path class="st0" d="M119.2,17.8V8.5h1.8v3.4c0.5-0.6,1.2-0.9,2-0.9c0.8,0,1.5,0.3,2,0.9c0.5,0.6,0.8,1.4,0.8,2.6
			c0,1.2-0.3,2-0.8,2.7c-0.5,0.6-1.2,0.9-2,0.9c-0.4,0-0.8-0.1-1.1-0.3c-0.4-0.2-0.7-0.5-1-0.9v1H119.2z M121,14.3
			c0,0.7,0.1,1.2,0.3,1.5c0.3,0.5,0.7,0.7,1.2,0.7c0.4,0,0.7-0.2,1-0.5c0.3-0.3,0.4-0.9,0.4-1.6c0-0.8-0.1-1.3-0.4-1.7
			s-0.6-0.5-1.1-0.5c-0.4,0-0.8,0.2-1.1,0.5C121.1,13.1,121,13.6,121,14.3z"/>
		<path class="st0" d="M126.4,11h1.9l1.6,4.8l1.6-4.8h1.8l-2.4,6.5l-0.4,1.2c-0.2,0.4-0.3,0.7-0.4,0.9c-0.1,0.2-0.3,0.4-0.5,0.5
			c-0.2,0.1-0.4,0.2-0.7,0.3s-0.6,0.1-0.9,0.1c-0.3,0-0.7,0-1-0.1l-0.2-1.4c0.3,0.1,0.5,0.1,0.8,0.1c0.4,0,0.7-0.1,0.9-0.4
			s0.4-0.6,0.5-0.9L126.4,11z"/>
	</g>
	<g>
		<path class="st0" d="M71.8,26.6v1.4h-1.2v2.7c0,0.5,0,0.9,0,1s0.1,0.2,0.2,0.2c0.1,0.1,0.2,0.1,0.3,0.1c0.2,0,0.4-0.1,0.7-0.2
			l0.2,1.4c-0.4,0.2-0.9,0.3-1.4,0.3c-0.3,0-0.6-0.1-0.9-0.2c-0.3-0.1-0.4-0.2-0.6-0.4c-0.1-0.2-0.2-0.4-0.3-0.7
			c0-0.2-0.1-0.6-0.1-1.3v-2.9H68v-1.4h0.8v-1.3l1.8-1v2.4H71.8z"/>
		<path class="st0" d="M74.8,24.1v3.4c0.6-0.7,1.3-1,2.1-1c0.4,0,0.8,0.1,1.1,0.2s0.6,0.3,0.7,0.6s0.3,0.5,0.3,0.8s0.1,0.7,0.1,1.3
			v4h-1.8v-3.6c0-0.7,0-1.2-0.1-1.3c-0.1-0.2-0.2-0.3-0.4-0.5c-0.2-0.1-0.4-0.2-0.6-0.2c-0.3,0-0.6,0.1-0.8,0.2
			c-0.2,0.1-0.4,0.4-0.5,0.7c-0.1,0.3-0.2,0.7-0.2,1.3v3.4H73v-9.3H74.8z"/>
		<path class="st0" d="M84.9,31.2l1.8,0.3c-0.2,0.7-0.6,1.1-1.1,1.5s-1.1,0.5-1.9,0.5c-1.2,0-2-0.4-2.6-1.1
			c-0.4-0.6-0.7-1.4-0.7-2.3c0-1.1,0.3-2,0.9-2.6s1.3-0.9,2.2-0.9c1,0,1.8,0.3,2.4,1s0.9,1.7,0.8,3h-4.5c0,0.5,0.2,0.9,0.4,1.2
			c0.3,0.3,0.6,0.4,1,0.4c0.3,0,0.5-0.1,0.7-0.2S84.8,31.6,84.9,31.2z M85,29.4c0-0.5-0.1-0.9-0.4-1.2s-0.6-0.4-0.9-0.4
			c-0.4,0-0.7,0.1-1,0.4s-0.4,0.7-0.4,1.2H85z"/>
		<path class="st0" d="M91.8,33.4v-9.3h6.9v1.6h-5v2.1h4.7v1.6h-4.7v2.5h5.2v1.6H91.8z"/>
		<path class="st0" d="M104.9,33.4v-1c-0.2,0.4-0.6,0.6-1,0.9c-0.4,0.2-0.8,0.3-1.3,0.3c-0.5,0-0.9-0.1-1.2-0.3
			c-0.4-0.2-0.6-0.5-0.8-0.8c-0.2-0.4-0.2-0.9-0.2-1.5v-4.3h1.8v3.1c0,0.9,0,1.5,0.1,1.7s0.2,0.4,0.4,0.5s0.4,0.2,0.7,0.2
			c0.3,0,0.6-0.1,0.8-0.3c0.2-0.2,0.4-0.4,0.5-0.6c0.1-0.2,0.1-0.9,0.1-1.8v-2.8h1.8v6.7H104.9z"/>
		<path class="st0" d="M110.1,33.4h-1.8v-6.7h1.7v1c0.3-0.5,0.5-0.8,0.8-0.9s0.5-0.2,0.8-0.2c0.4,0,0.8,0.1,1.2,0.3l-0.6,1.6
			c-0.3-0.2-0.6-0.3-0.8-0.3c-0.2,0-0.5,0.1-0.6,0.2s-0.3,0.4-0.4,0.7s-0.1,1.1-0.1,2.3V33.4z"/>
		<path class="st0" d="M113.1,29.9c0-0.6,0.1-1.2,0.4-1.7c0.3-0.6,0.7-1,1.2-1.3c0.5-0.3,1.1-0.4,1.8-0.4c1,0,1.9,0.3,2.5,1
			s1,1.5,1,2.5c0,1-0.3,1.9-1,2.5s-1.5,1-2.5,1c-0.6,0-1.2-0.1-1.8-0.4s-1-0.7-1.3-1.2C113.2,31.4,113.1,30.7,113.1,29.9z M114.9,30
			c0,0.7,0.2,1.2,0.5,1.5c0.3,0.4,0.7,0.5,1.2,0.5s0.9-0.2,1.2-0.5s0.5-0.9,0.5-1.5c0-0.7-0.2-1.2-0.5-1.5s-0.7-0.5-1.2-0.5
			s-0.9,0.2-1.2,0.5C115.1,28.8,114.9,29.3,114.9,30z"/>
		<path class="st0" d="M121.4,26.6h1.7v1c0.2-0.3,0.5-0.6,0.9-0.8c0.4-0.2,0.8-0.3,1.2-0.3c0.8,0,1.4,0.3,2,0.9
			c0.5,0.6,0.8,1.5,0.8,2.6c0,1.1-0.3,2-0.8,2.6c-0.5,0.6-1.2,0.9-2,0.9c-0.4,0-0.7-0.1-1-0.2c-0.3-0.1-0.6-0.4-1-0.8V36h-1.8V26.6z
			 M123.1,29.9c0,0.8,0.2,1.3,0.5,1.7c0.3,0.4,0.7,0.5,1.1,0.5c0.4,0,0.8-0.2,1-0.5s0.4-0.9,0.4-1.6c0-0.7-0.1-1.2-0.4-1.6
			c-0.3-0.3-0.6-0.5-1.1-0.5c-0.4,0-0.8,0.2-1.1,0.5C123.3,28.7,123.1,29.2,123.1,29.9z"/>
		<path class="st0" d="M133.3,31.2l1.8,0.3c-0.2,0.7-0.6,1.1-1.1,1.5s-1.1,0.5-1.9,0.5c-1.2,0-2-0.4-2.6-1.1
			c-0.4-0.6-0.7-1.4-0.7-2.3c0-1.1,0.3-2,0.9-2.6s1.3-0.9,2.2-0.9c1,0,1.8,0.3,2.4,1s0.9,1.7,0.8,3h-4.5c0,0.5,0.2,0.9,0.4,1.2
			c0.3,0.3,0.6,0.4,1,0.4c0.3,0,0.5-0.1,0.7-0.2S133.2,31.6,133.3,31.2z M133.4,29.4c0-0.5-0.1-0.9-0.4-1.2s-0.6-0.4-0.9-0.4
			c-0.4,0-0.7,0.1-1,0.4s-0.4,0.7-0.4,1.2H133.4z"/>
		<path class="st0" d="M137.9,28.7l-1.6-0.3c0.2-0.7,0.5-1.1,0.9-1.4s1.1-0.5,2-0.5c0.8,0,1.4,0.1,1.8,0.3s0.7,0.4,0.8,0.7
			c0.2,0.3,0.2,0.8,0.2,1.6l0,2.1c0,0.6,0,1,0.1,1.3c0.1,0.3,0.2,0.6,0.3,0.9h-1.8c0-0.1-0.1-0.3-0.2-0.5c0-0.1-0.1-0.2-0.1-0.2
			c-0.3,0.3-0.6,0.5-1,0.7c-0.3,0.1-0.7,0.2-1.1,0.2c-0.7,0-1.2-0.2-1.6-0.6c-0.4-0.4-0.6-0.9-0.6-1.4c0-0.4,0.1-0.7,0.3-1
			c0.2-0.3,0.4-0.5,0.8-0.7c0.3-0.2,0.8-0.3,1.4-0.4c0.8-0.2,1.4-0.3,1.7-0.4v-0.2c0-0.3-0.1-0.6-0.3-0.7c-0.2-0.1-0.5-0.2-1-0.2
			c-0.3,0-0.6,0.1-0.7,0.2S138,28.4,137.9,28.7z M140.3,30.2c-0.2,0.1-0.6,0.2-1.1,0.3c-0.5,0.1-0.8,0.2-1,0.3
			c-0.2,0.2-0.3,0.4-0.3,0.6c0,0.2,0.1,0.5,0.3,0.6c0.2,0.2,0.4,0.3,0.7,0.3c0.3,0,0.6-0.1,0.9-0.3c0.2-0.2,0.4-0.4,0.4-0.6
			c0-0.2,0.1-0.4,0.1-0.9V30.2z"/>
		<path class="st0" d="M150,33.4h-1.8v-3.4c0-0.7,0-1.2-0.1-1.4s-0.2-0.4-0.4-0.5c-0.2-0.1-0.4-0.2-0.6-0.2c-0.3,0-0.6,0.1-0.8,0.3
			c-0.2,0.2-0.4,0.4-0.5,0.7s-0.1,0.8-0.1,1.5v3.1h-1.8v-6.7h1.7v1c0.6-0.8,1.3-1.1,2.2-1.1c0.4,0,0.8,0.1,1.1,0.2s0.6,0.3,0.7,0.5
			c0.2,0.2,0.3,0.5,0.3,0.8s0.1,0.7,0.1,1.2V33.4z"/>
		<path class="st0" d="M155.4,24.1h1.9v5c0,0.8,0,1.3,0.1,1.6c0.1,0.4,0.3,0.7,0.6,0.9s0.7,0.3,1.2,0.3c0.5,0,0.9-0.1,1.2-0.3
			s0.4-0.5,0.5-0.8c0.1-0.3,0.1-0.8,0.1-1.6v-5.1h1.9V29c0,1.1-0.1,1.9-0.2,2.4c-0.1,0.5-0.3,0.9-0.6,1.2c-0.3,0.3-0.6,0.6-1.1,0.8
			s-1.1,0.3-1.8,0.3c-0.9,0-1.6-0.1-2-0.3s-0.8-0.5-1.1-0.8c-0.3-0.3-0.4-0.7-0.5-1c-0.1-0.5-0.2-1.3-0.2-2.4V24.1z"/>
		<path class="st0" d="M170.9,33.4h-1.8v-3.4c0-0.7,0-1.2-0.1-1.4s-0.2-0.4-0.4-0.5c-0.2-0.1-0.4-0.2-0.6-0.2
			c-0.3,0-0.6,0.1-0.8,0.3c-0.2,0.2-0.4,0.4-0.5,0.7s-0.1,0.8-0.1,1.5v3.1h-1.8v-6.7h1.7v1c0.6-0.8,1.3-1.1,2.2-1.1
			c0.4,0,0.8,0.1,1.1,0.2s0.6,0.3,0.7,0.5c0.2,0.2,0.3,0.5,0.3,0.8s0.1,0.7,0.1,1.2V33.4z"/>
		<path class="st0" d="M172.7,25.7v-1.7h1.8v1.7H172.7z M172.7,33.4v-6.7h1.8v6.7H172.7z"/>
		<path class="st0" d="M175.9,29.9c0-0.6,0.1-1.2,0.4-1.7c0.3-0.6,0.7-1,1.2-1.3c0.5-0.3,1.1-0.4,1.8-0.4c1,0,1.9,0.3,2.5,1
			s1,1.5,1,2.5c0,1-0.3,1.9-1,2.5s-1.5,1-2.5,1c-0.6,0-1.2-0.1-1.8-0.4s-1-0.7-1.3-1.2C176.1,31.4,175.9,30.7,175.9,29.9z M177.7,30
			c0,0.7,0.2,1.2,0.5,1.5c0.3,0.4,0.7,0.5,1.2,0.5s0.9-0.2,1.2-0.5s0.5-0.9,0.5-1.5c0-0.7-0.2-1.2-0.5-1.5s-0.7-0.5-1.2-0.5
			s-0.9,0.2-1.2,0.5C177.9,28.8,177.7,29.3,177.7,30z"/>
		<path class="st0" d="M190.4,33.4h-1.8v-3.4c0-0.7,0-1.2-0.1-1.4s-0.2-0.4-0.4-0.5c-0.2-0.1-0.4-0.2-0.6-0.2
			c-0.3,0-0.6,0.1-0.8,0.3c-0.2,0.2-0.4,0.4-0.5,0.7s-0.1,0.8-0.1,1.5v3.1h-1.8v-6.7h1.7v1c0.6-0.8,1.3-1.1,2.2-1.1
			c0.4,0,0.8,0.1,1.1,0.2s0.6,0.3,0.7,0.5c0.2,0.2,0.3,0.5,0.3,0.8s0.1,0.7,0.1,1.2V33.4z"/>
	</g>
</g>
</svg>
